# xmcd
#
# Track frame offsets:
#	150
#	17442
#	33754
#	47645
#	60577
#	74506
#	92382
#	102478
#	115856
#	130758
#	140282
#	152973
#	166896
#	179843
#	203091
#	219576
#	232341
#	244112
#
# Disc length: 3533 seconds
#
# Revision: 1
# Processed by: cddbd v1.5PL3 Copyright (c) Steve Scherf et al.
# Submitted via: audiograbber 1.82.02
#
DISCID=fb0dcb12
DTITLE=Various Artist - Lady Sings The Blues 2
DYEAR=2004
DGENRE=Blues
TTITLE0=The Peter Malick Group Featuring Norah Jones - New York City
TTITLE1=Joss Stone - The Chokin' Kind
TTITLE2=Aretha Franklin - All Night Long
TTITLE3=Peggy Lee - As Time Goes By
TTITLE4=Nina Simone - I Wish I Knew (How It Would Feel To Be Free)
TTITLE5=Sarah Vaughan - Lover Man ( Oh Where Can You Be)
TTITLE6=Julie London - Go Slow
TTITLE7=Nancy Wilson - The Nearness Of You
TTITLE8=Billie Holiday - Georgia On My Mind
TTITLE9=Dinah Washington - Baby Won't You Please Come Home
TTITLE10=Dusty Springfield - You Don't Have To Say You Love Me
TTITLE11=P.P. Arnold - The First Cut Is The Deepest
TTITLE12=Irma Thomas - Time Is On My Side
TTITLE13=Esther Phillips - How Blue Can You Get?
TTITLE14=Lou Rawls and Dianne Reeves - At Last
TTITLE15=Julie London - In The Wee Small Hours Of The Morning
TTITLE16=Ella Fitzgerald and The Delta Rythm Boys - (It's Only A) Paper Moon
TTITLE17=Eva Cassidy with Chuck Brown - Need Your Love So Bad
EXTD=2004 EMI Music Australia
EXTT0=
EXTT1=
EXTT2=
EXTT3=
EXTT4=
EXTT5=
EXTT6=
EXTT7=
EXTT8=
EXTT9=
EXTT10=
EXTT11=
EXTT12=
EXTT13=
EXTT14=
EXTT15=
EXTT16=
EXTT17=
PLAYORDER=
